<?xml version="1.0" encoding="UTF-8"?>
<svg xmlns="http://www.w3.org/2000/svg" width="689" height="199" viewBox="0 0 689 199" fill="none">
  <path
    d="M18.6 162.3C19.1 161.2 19.3 160.1 19.3 158.9C19.4 152.8 19.3 146.8 19.3 140.8C19.3 101.4 19.3 62 19.3 22.6C19.3 21.5 19.4 20.5 19.4 19.5C23.7 18.9 166.8 19.1 168.7 19.7V179.3H43.7C44 178.3 44.3 177.6 44.6 176.8C46.2 173.4 47.8 170 49.4 166.6C53.8 157.2 58.4 147.8 62.6 138.3C63.8 135.6 65.1 134.5 68.2 134.5C92.6 134.6 117 134.6 141.4 134.6C142.5 134.6 143.5 134.5 145.1 134.4C130.2 102.7 115.6 71.4 100.9 40.1H87.5C84.5 45 57.2 104 56.9 106H77.7C83.1 94.5 88.5 83.1 94 71.2C100.9 86 107.8 100.3 114.5 115.1H110C91.6 115.1 73.1 115.1 54.7 115.1C53.3 115.1 52.2 115.1 51.4 116.8C47.5 125.5 43.3 134 39.3 142.6C33.6 154.9 27.8 167.1 22.1 179.4C19.2 185.7 16.2 192 13.2 198.5C16.1 199.1 186 199.1 188.1 198.5C188.7 195 188.5 2.1 187.8 0H185.1C123.6 0 62 0.0999985 0.499977 0.0999985C0.399977 0.0999985 0.399976 0.199999 0.299976 0.299999C0.199976 0.399999 0.199976 0.4 0.0999756 0.5C0.0999756 66.2 0.0999756 132 0.0999756 197.8C0.0999756 197.8 0.199976 197.9 0.299976 197.9C0.399976 197.9 0.599978 198 0.699978 198C0.899978 197.7 1.19998 197.3 1.29998 196.9C7.09998 185.4 12.9 173.9 18.6 162.3Z"
    fill="black"></path>
  <path
    d="M128.2 143.6C128.5 144.4 128.7 145 128.9 145.6C132 152.3 135.3 159 138.3 165.7C139 167.2 139.9 167.7 141.4 167.6C147 167.5 152.6 167.6 158.2 167.6C158.8 167.6 159.4 167.5 160.2 167.4C160.2 167.1 160.1 166.8 160 166.5C156.6 159.2 153.2 151.9 149.8 144.6C149.2 143.4 148.4 143.1 147.2 143.1C141.4 143.1 135.7 143.1 129.9 143.1C129.4 143.2 128.9 143.4 128.2 143.6Z"
    fill="black"></path>
  <path
    d="M661.8 102C657.6 101.9 653.4 102 649.2 102H637.7V92.9C645.5 92.9 652.7 93.1 659.9 92.8C663.7 92.7 666.5 93.5 667.7 97.5L675.4 95.5C676.1 87.3 674.3 84.6 666.7 84.1C658.5 83.6 650.3 83.8 642.2 83.9C629.3 83.9 627.2 86.1 627.5 99.1C627.7 108.7 629.9 110.9 639.7 111.2C646.9 111.4 654.2 111.2 661.4 111.3C663.1 111.4 664.9 111.7 666.6 112V121H636.5L634.4 115.9L626.7 117.7C625.8 126.1 627.6 129.5 633.9 129.7C645.6 130.1 657.3 130 668.9 129.6C671.1 129.5 674.4 127.8 675.1 126C677.8 119.6 678.1 112.5 675.1 106.3C672.5 100.9 666.6 102.2 661.8 102Z"
    fill="black"></path>
  <path
    d="M473.1 84.5C470.8 84 468.5 83.7 466.2 83.8C456.4 83.7 446.6 83.7 436.8 83.8C434.8 83.8 432.7 84.1 430.5 84.3V129.2H441.1V111.8C444.1 111.7 446.4 111.5 448.7 111.5C455.9 111.4 463.2 111.6 470.4 111.4C476.7 111.2 479.2 108.5 479.5 102.3C479.7 98.8 479.7 95.3 479.4 91.8C479 87.5 477.3 85.5 473.1 84.5ZM464.3 102.9C456.9 102.9 449.4 102.9 441.5 102.9V93.4H467.9C468.1 95.9 468.3 97.5 468.3 99.1C468.3 101.5 466.8 102.9 464.3 102.9Z"
    fill="black"></path>
  <path
    d="M604.3 84.4H594V120.7H564.4V84.3H553.6C553.6 96.5 553.5 108.1 553.6 119.7C553.7 127.2 556.2 129.5 563.9 129.7C573.7 129.8 583.6 129.8 593.4 129.7C602.5 129.6 604.7 127.7 604.9 118.7C605.1 108.7 605 98.6 604.9 88.6C604.8 87.1 604.6 85.7 604.3 84.4Z"
    fill="black"></path>
  <path
    d="M238 88.2C234.2 81.7 226.5 81.8 222.7 88.4C215.8 100.6 208.9 112.8 202.2 125C201.6 126.4 201 127.8 200.6 129.2H210.5L215.9 119.8C223.4 119.8 230.4 120.1 237.4 119.7C242.2 119.4 245.5 120.7 247.1 125.4C248.3 128.8 250.7 130 254.1 129.6C256.1 129.4 258.2 129.6 260.9 129.6C260.4 128.1 259.7 126.6 259 125.2C252.1 112.9 245.1 100.5 238 88.2ZM220.7 110.8C223.7 105.2 226.4 100 230 93.4C233.4 99.9 236.1 105 239.2 110.8H220.7Z"
    fill="black"></path>
  <path d="M286.3 84.5H276V129.1H320.1V121.1H286.3V84.5Z" fill="black"></path>
  <path
    d="M347.5 121.2C346.1 108.5 347.9 96.4 346.4 84.4H336.6C335.3 95.6 335.7 124.6 337.2 129.2H380.3V121.2H347.5Z"
    fill="black"></path>
  <path
    d="M505.3 120.9V84.2H494.9V128.9C505.5 130.3 534.4 129.8 539.5 128.2C539.4 126.1 539.2 123.8 539 120.8L505.3 120.9Z"
    fill="black"></path>
  <path
    d="M680.7 69C676.4 69.1 672.9 72.7 673 77C673.1 81.3 676.7 84.8 681 84.7C685.3 84.6 688.7 81.1 688.7 76.8C688.6 72.4 685 69 680.7 69ZM680.7 83C677.3 83 674.5 80.2 674.4 76.8C674.4 73.4 677.2 70.6 680.6 70.5C684.1 70.5 686.6 73.3 686.6 76.8C686.7 80.1 684.1 82.9 680.8 82.9C680.8 83 680.8 83 680.7 83Z"
    fill="black"></path>
  <path
    d="M682.5 77.1C683.4 76.8 684 76.1 684.1 75.2C684.1 74.5 683.8 73.9 683.3 73.5C682.5 73 681.5 72.8 680.6 72.9C679.6 72.9 678.6 73 677.6 73.1V80.9H679.4V77.8H680.3C681.3 77.8 681.8 78.2 681.9 79C682 79.7 682.2 80.3 682.5 80.9H684.5C684.2 80.3 684 79.6 683.9 78.9C683.8 78.1 683.3 77.4 682.5 77.1ZM680.3 76.5H679.4V74.3C679.7 74.2 680.1 74.2 680.4 74.2C681.5 74.2 682.1 74.7 682.1 75.4C682.2 76.1 681.3 76.5 680.3 76.5Z"
    fill="black"></path>
</svg>